<svg xmlns="http://www.w3.org/2000/svg" width="400.203" height="400" viewBox="0 0 381.182 380.989">
  <defs>
    <style>
      .cls-1 {
        fill: #53e20c;
        fill-rule: evenodd;
      }
    </style>
  </defs>
  <path id="Color_Fill_1" data-name="Color Fill 1" class="cls-1" d="M1078.16,24.668c20.86,0.05,20.5,52.86,25.37,71.809,2.35,9.118,1.5,25.983,9.72,28.616,7.74,2.48,12.52-9.651,14.85-13.5,6.63-10.952,20.2-45.458,31.05-49.4,10.13-3.687,16.62,14.5,22.67,17.277,8.83,4.052,9.53-13.63,20.52-9.989,10.13,3.357,8.39,23.621,18.36,27.536,4.79,1.884,22.61-13.252,29.15-15.658h10.26l-13.5,6.749c-4.71,3.039-22.56,28.687-31.58,21.056-9.37-7.916-6.61-27.507-15.39-35.9l-3.24.27c-4.15,5.675-6.33,13.557-10.8,18.9-11.65,2.115-10.93-17.464-24.84-12.688q-2.55,2.564-5.12,5.129c-12.52,12.519-19.19,39.224-38.07,44.543-21.66,6.1-26.69-45.98-45.35-49.672-18.44-3.648-22.69,22.366-35.64,19.977-10.98-2.027-18.19-25.74-30.77-21.057L986.371,94.048c-6.464,2.3-12.016-6.618-17.547-2.16-4.315,3.478-10.959,18.671-20.247,15.388C938.234,103.62,936.611,86.3,928.33,79.47c-8.206-6.768-11.664,9.19-20.787,6.749L895.125,78.66l-16.2-1.62,1.62-1.08c5.821-.067,10-4.64,17.278-2.7,4.238,1.13,6.806,6.334,13.5,4.859l1.08-.27c5.12-1.91,2.925-12.431,17.278-9.308,11.352,2.47,8.022,34.73,19.977,34.954,6.546-3.041,15.079-35.124,24.836-22.406l6.479,9.719c12.5,1.915,20.168-38.7,32.4-43.193,12.86-4.728,13.7,17.117,16.73,24.566l5.4,6.749C1046.75,80.761,1063.34,32.142,1078.16,24.668Z" transform="translate(-878.938 113.213)"/>
</svg>
