<?xml version="1.0" standalone="no"?>
<!DOCTYPE svg PUBLIC "-//W3C//DTD SVG 20010904//EN"
 "http://www.w3.org/TR/2001/REC-SVG-20010904/DTD/svg10.dtd">
<svg version="1.0" xmlns="http://www.w3.org/2000/svg"
 width="512.000000pt" height="512.000000pt" viewBox="0 0 512.000000 512.000000"
 preserveAspectRatio="xMidYMid meet">
<metadata>
Created by potrace 1.11, written by Peter Selinger 2001-2013
</metadata>
<g transform="translate(0.000000,512.000000) scale(0.100000,-0.100000)"
fill="#000000" stroke="none">
<path d="M0 2560 l0 -2560 2560 0 2560 0 0 2560 0 2560 -2560 0 -2560 0 0
-2560z m2512 1062 c9 -4 233 -200 498 -435 l482 -428 22 19 c11 10 231 204
489 431 l467 411 239 -2 239 -3 -594 -520 c-327 -286 -602 -525 -610 -532 -14
-10 -11 -16 22 -45 22 -18 59 -51 84 -74 25 -22 282 -248 572 -502 l528 -462
-249 0 -248 0 -478 423 c-262 232 -481 423 -485 425 -4 2 -225 -189 -491 -422
l-484 -426 -1177 0 -1178 0 0 1075 0 1075 1168 -1 c642 0 1174 -3 1184 -7z"/>
<path d="M487 3343 c-4 -3 -7 -125 -7 -270 l0 -263 1010 0 1010 0 0 -140 0
-140 -1010 0 -1010 0 0 -385 0 -385 936 0 935 0 445 389 c245 214 446 392 447
396 1 3 -202 186 -452 405 l-455 400 -921 0 c-507 0 -925 -3 -928 -7z"/>
</g>
</svg>
