<svg xmlns="http://www.w3.org/2000/svg" width="1381" height="440" viewBox="0 0 1381 440">
  <defs>
    <style>
      .cls-1 {
        fill: #6ba45a;
        fill-rule: evenodd;
      }
    </style>
  </defs>
  <path id="Color_Fill_1" data-name="Color Fill 1" class="cls-1" d="M1002.16-.332c20.86,0.05,20.5,52.86,25.37,71.809,2.35,9.118,1.5,25.983,9.72,28.616,7.74,2.48,12.52-9.651,14.85-13.5,6.63-10.952,20.2-45.458,31.05-49.4,10.13-3.687,16.62,14.5,22.67,17.277,8.83,4.052,9.53-13.63,20.52-9.989,10.13,3.357,8.39,23.621,18.36,27.536,4.79,1.884,22.61-13.252,29.15-15.658h10.26l-13.5,6.749c-4.71,3.039-22.56,28.687-31.58,21.057-9.37-7.916-6.61-27.508-15.39-35.9l-3.24.27c-4.15,5.675-6.33,13.557-10.8,18.9-11.65,2.115-10.93-17.464-24.84-12.688q-2.55,2.564-5.12,5.129c-12.52,12.519-19.19,39.224-38.07,44.543-21.66,6.1-26.69-45.98-45.352-49.672-18.436-3.648-22.692,22.366-35.634,19.977C949.6,72.69,942.4,48.977,929.808,53.66L910.371,69.048c-6.464,2.3-12.016-6.618-17.547-2.16-4.315,3.478-10.959,18.671-20.247,15.388C862.234,78.62,860.611,61.3,852.33,54.47c-8.206-6.768-11.664,9.19-20.787,6.749L819.125,53.66l-16.2-1.62,1.62-1.08c5.821-.067,10-4.64,17.278-2.7,4.238,1.13,6.806,6.334,13.5,4.859l1.08-.27c5.12-1.91,2.925-12.431,17.278-9.308,11.352,2.47,8.022,34.73,19.977,34.954,6.546-3.041,15.079-35.124,24.836-22.407l6.479,9.719c12.5,1.915,20.164-38.7,32.395-43.193,12.867-4.728,13.7,17.117,16.738,24.566l5.4,6.749C970.751,55.761,987.335,7.142,1002.16-.332Z"/>
  <path id="sublime" class="cls-1" d="M214.732,366.284c-21.483,0-41.6-6.445-56.606-18.414-15.686-11.969-24.211-27.928-24.211-45.114h17.05c0,26.393,28.644,48.183,63.767,48.183,16.368,0,31.373-4.3,42.626-12.276,10.571-7.366,17.05-17.187,18.755-27.621,1.364-11.049-2.387-21.79-11.594-31-10.912-11.355-28.985-20.255-52.174-26.087l2.046-7.058-2.046,7.058C150.624,239.227,132.55,206.082,136.3,180.3c2.046-14.731,10.912-27.927,24.893-37.748,14.322-10.128,33.077-15.652,53.537-15.652,21.143,0,41.262,6.445,56.266,18.414,15.686,11.969,24.211,28.235,24.211,45.421h-17.05c0-26.7-28.644-48.49-63.427-48.49-16.709,0-31.713,4.3-42.966,12.276-10.571,7.365-17.05,17.186-18.414,27.621-1.705,11.048,2.046,21.79,11.253,31,10.912,11.355,28.985,20.562,52.173,26.086,62.063,15.038,79.795,47.877,76.044,73.656-2.046,14.731-10.912,27.928-24.893,37.749C253.607,360.76,235.193,366.284,214.732,366.284Zm179.705-4.6c-23.529,0-45.694-8.286-62.4-23.324s-25.917-34.987-25.917-56.47V130.892h17.051V281.886c0,17.187,7.5,33.452,20.8,45.422a75.446,75.446,0,0,0,50.468,19.027c19.1,0,37.17-6.751,50.469-19.027,13.64-11.97,21.142-28.235,21.142-45.422V130.892H483.1V281.886c0,21.483-9.207,41.432-25.916,56.47A94.394,94.394,0,0,1,394.437,361.68ZM657.008,252.731a66.874,66.874,0,0,0-18.073-11.355,97.258,97.258,0,0,0,11.594-8.287c12.617-11.355,19.437-26.393,19.437-42.352a55.45,55.45,0,0,0-19.437-42.045,70.2,70.2,0,0,0-47.059-17.8H494.008V354.929H609.949c17.732,0,34.442-6.138,47.059-17.494s19.437-26.393,19.437-42.352S669.625,264.086,657.008,252.731ZM511.058,146.237H603.47c12.958,0,25.575,4.6,34.783,13.2a41.4,41.4,0,0,1,14.663,31.3c0,11.969-5.115,23.018-14.663,31.611a52.248,52.248,0,0,1-34.783,12.89H511.058v-89Zm134.015,180.15a51.873,51.873,0,0,1-35.124,13.2H511.058v-89h98.891a51.872,51.872,0,0,1,35.124,13.2,42.228,42.228,0,0,1,14.322,31.3A41.735,41.735,0,0,1,645.073,326.387Zm176.293,27.621H687.352V130.892H704.4V338.663H821.366v15.345Zm31.368,0.614h-17.05V130.892h17.05v223.73Zm265.976,0.307h-17.05V160.354L992.884,348.484,884.1,160.354V354.929h-17.05V129.05l16.027-3.683,109.8,189.971L1102.69,125.367l16.02,3.683V354.929Zm144.58-208.692V130.892H1129.62V355.235h133.67V339.89H1146.67V249.969h98.89V234.624h-98.89V146.237h116.62Z"/>
  <path class="cls-1" d="M1,44l847-1s10.888,19.478,11,19c0.271-1.161-840,1.18-840,2.329V420c0,0.786,1166.48-6.718,1342.5-4.966,0.45,0,.36-351.783.5-353.051s-197.54.636-197,.017c6.3-7.153,9.63-7.43,20-18,0.11-.112,64.73.135,66.01,0.007,1.42-.141,129-0.261,128.99-0.007-0.35,6.633,1,396,1,396H0Z"/>
</svg>
